<svg xmlns="http://www.w3.org/2000/svg" width="40" height="40" viewBox="0 0 203 202" version="1.1">
	<path d="M 33 41.526 L 33 54.052 64.250 53.999 C 124.918 53.897, 134 54.008, 134 54.854 C 134 55.324, 108.396 81.311, 77.102 112.604 L 20.204 169.500 28.596 177.922 L 36.988 186.345 58.244 165.039 C 69.935 153.320, 79.350 143.230, 79.167 142.616 C 78.983 142.002, 79.165 141.832, 79.570 142.237 C 79.976 142.642, 96.059 127.230, 115.311 107.987 C 134.563 88.744, 150.919 73, 151.657 73 C 152.763 73, 153 81.908, 153 123.500 L 153 174 165.500 174 L 178 174 178 101.500 L 178 29 105.500 29 L 33 29 33 41.526" stroke="none" fill="black" fill-rule="evenodd"/>
</svg>